<svg viewBox="0 0 996 471" xmlns="http://www.w3.org/2000/svg" fill-rule="evenodd" clip-rule="evenodd" stroke-linecap="round" stroke-linejoin="round" stroke-miterlimit="1.414"><path fill="none" d="M-429-133h1440v896H-429z"/><path fill="#22c5b0" d="M-429 0H996v471H-429z"/><clipPath id="a"><path d="M-429 0H996v471H-429z"/></clipPath><g clip-path="url(#a)"><clipPath id="b"><path d="M46.655 400.062l1401.565-779.13 197.55 355.37-1401.564 779.13-197.551-355.37z"/></clipPath><g opacity=".5" clip-path="url(#b)"><path d="M1342.57-252.21c-58.185 35.097-138.138 183.514-232.187 245.489C994.14 69.878 787.047 112.51 645.113 207.384c-147.588 98.655-356.864 288.487-420.262 377.823-31.472 44.348-1.649 193.309 39.873 158.193 66.806-56.499 204.114-372.488 360.963-497.188C782.536 121.512 1066.852 72.453 1205.82-4.8c96.411-53.595 230.883-171.268 253.675-212.503 19.676-35.598-82.096-55.915-116.925-34.907z" fill="#24a291"/><path d="M188.536 475.307c70.153-51.518 279.157-258.646 397.513-310.206 95.536-41.619 214.141 34.917 312.621.845 138.647-47.968 431.97-230.527 519.259-288.656 16.726-11.139 22.271-69.452 4.473-60.121-89.86 47.113-400.669 285.273-543.633 342.8-97.151 39.092-218.313-39.839-314.154 2.363-118.939 52.374-336.804 259.714-399.484 311.876-6.004 4.996 17.11 5.722 23.405 1.099z" fill="#00b59f"/><path d="M220.205 478.367c36.498-61.899 210.859-192.295 310.811-249.516 87.868-50.303 192.851-61.77 288.897-93.809 125-41.7 361.955-90.056 461.107-156.385 76.513-51.185 93.604-227.728 133.801-241.588 40.198-13.859 145.974 107.629 107.384 158.433-44.218 58.211-242.062 141.684-372.689 190.836-153.547 57.777-409.012 70.168-548.594 155.82-130.717 80.212-225.443 318.722-288.896 358.09-43.223 26.817-117.657-78.065-91.821-121.881z" fill="#96fff1"/><path d="M270.426 465.607c43.506-61.053 188.664-212.482 301.757-274.324 113.092-61.842 274.852-59.003 376.799-96.729 83.867-31.035 164.228-74.807 234.883-129.624 73.579-57.087 156.29-200.564 206.592-212.895 50.301-12.332 123.117 90.194 95.218 138.906-28.524 49.803-169.758 122.6-266.361 159.912-148.44 57.335-472.918 99.636-624.279 184.094-125.099 69.803-229.789 284.21-283.891 322.654-27.335 19.424-60.179-64.685-40.718-91.994z" fill="#feffff"/><path d="M1424.33-244.746c-69.883 30.184-209.26 217.165-338.927 289.868-138.174 77.472-347.534 90.86-490.114 174.966C454.001 303.432 283.99 482.535 229.92 549.757c-17.608 21.891 19.956 92.332 40.95 73.663 55.78-49.602 162.051-284.311 293.73-371.279 138.812-91.679 382.455-114.107 539.139-178.794 139.362-57.535 347.531-156.31 400.963-209.326 32.001-31.751-38.987-126.641-80.372-108.767z" fill="#29b8a5"/><path d="M238.188 467.423c56.644-52.359 224.378-210.42 360.522-276.989 136.616-66.8 322.5-56.922 459.17-123.808 136.293-66.701 297.118-211.864 360.851-277.506 17.019-17.529 99.188 10.092 77.846 27.46-60.938 49.592-301.374 207.423-443.476 270.091-128.898 56.845-284.469 40.322-409.14 105.92-132.376 69.652-317.486 266.188-385.114 311.993-11.735 7.948-31.066-27.541-20.659-37.161z" fill="#24c8b2"/><path d="M896.51 114.304C996.047-9.366 1048.744 40.64 1153.768 58" fill="none" stroke="#c3fff7"/><path d="M327.823 483.281c55.311-50.736 197.761-251.346 322.415-316.2 124.654-64.854 286.891-34.282 425.511-72.924 147.428-41.098 371.715-157.94 459.06-173.662 10.188-1.834 7.965-34.465-1.792-31.004-76.917 27.286-313.441 149.815-459.71 194.72-135.279 41.53-292.082 10.16-417.905 74.708-125.823 64.547-282.436 258.516-337.032 312.576-3.579 3.544 5.741 15.19 9.453 11.786z" fill="#25b5a2"/><path d="M235.214 481.547c81.355-86.458 262.356-250.02 387.335-305.238 110.825-48.964 262.839 42.773 362.543-26.067 116.95-80.747 265.089-332.525 339.158-458.415" fill="none" stroke-width="2" stroke="#c3fff7"/><path d="M210.51 525.304c99.537-123.67 302.895-313.532 455.258-377.378 135.615-56.827 314.306 11.662 438.355-49.301 124.05-60.963 245.311-231.306 305.941-316.477" fill="none" stroke-width="2" stroke="#c3fff7"/><path d="M211.092 557.138c44.254-94.289 132.762-282.866 262.381-349.147 151.777-77.611 498.436-37.04 648.281-116.521 129.286-68.577 191.81-290.755 250.789-360.366 25.413-29.995 77.193-48.201 103.082-57.304" fill="none" stroke-width="2" stroke="#c3fff7"/></g></g></svg>